<svg xmlns="http://www.w3.org/2000/svg" width="64" height="64" viewBox="0 0 64 64" fill="none">
  <rect width="64" height="64" rx="14" fill="#DDEAFC"/>
  <path d="M20.312 25.744C20.312 23.696 21.784 22.096 24.6 22.096C26.776 22.096 28.824 22.928 30.424 24.4L28.888 26.352C27.448 25.072 25.976 24.368 24.376 24.368C22.904 24.368 22.264 25.104 22.264 25.904C22.264 27.056 23.672 27.536 25.432 28.08C27.768 28.784 30.488 29.68 30.488 32.912C30.488 35.184 28.856 37.008 25.688 37.008C23.032 37.008 20.92 36.08 19.352 34.544L20.92 32.528C22.296 33.904 24.12 34.736 25.848 34.736C27.352 34.736 28.28 34.032 28.28 32.976C28.28 31.728 26.904 31.28 25.176 30.736C22.808 30 20.312 29.072 20.312 25.744Z" fill="#214E97"/>
  <path d="M39.736 31.12L34.52 22.32H37.624L40.984 28.304L44.344 22.32H47.448L42.232 31.12V36.688H39.736V31.12Z" fill="#214E97"/>
</svg>
